Patient4_TMGait_0pt6_02_left_34_GRF.mot
version=1
nRows=32
nColumns=19
inDegrees=no
endheader
time	F1x	F1y	F1z	M1x	M1y	M1z	F2x	F2y	F2z	M2x	M2y	M2z	EC1x	EC1y	EC1z	EC2x	EC2y	EC2z
41.5	1.9844	4.0576	-11.0012	-0.28002	5.8224	2.1429	-20.1617	747.7116	-49.1801	301.8376	63.8552	793.5328	-0.0592	0.0182	-0.0073	-0.0462	0.0165	0.9585
41.5121	1.181	3.3724	-7.4316	-0.37582	3.8456	2.2772	-20.3649	747.4442	-51.4279	302.2553	64.8749	791.0417	-0.0592	0.0182	-0.0073	-0.0462	0.0165	0.9585
41.5243	0.51007	2.8053	-4.384	-0.48059	2.1567	2.4026	-20.2582	747.69	-53.1459	302.6541	65.3458	788.6379	-0.0592	0.0182	-0.0073	-0.0462	0.0165	0.9585
41.5364	-0.002852	2.3934	-2.0282	-0.58083	0.84126	2.5179	-19.7883	748.5075	-54.2688	303.0256	65.2469	786.4447	-0.0592	0.0182	-0.0073	-0.0462	0.0165	0.9585
41.5486	-0.35919	2.1383	-0.38333	-0.67005	-0.084992	2.6272	-18.9132	749.8463	-54.8712	303.3671	64.6534	784.4543	-0.0592	0.0182	-0.0073	-0.0462	0.0165	0.9585
41.5607	-0.59092	2.01	0.65902	-0.74339	-0.68623	2.7251	-17.637	751.6176	-55.0985	303.6806	63.6994	782.6282	-0.0592	0.0182	-0.0073	-0.0462	0.0165	0.9585
41.5729	-0.7359	1.957	1.2295	-0.79712	-1.0358	2.7891	-15.9445	753.7026	-55.089	303.9704	62.4931	780.86	-0.0592	0.0182	-0.0073	-0.0462	0.0165	0.9585
41.585	-0.83492	1.9138	1.4773	-0.82124	-1.2212	2.7796	-13.8723	756.0138	-54.9678	304.2509	61.1334	779.0799	-0.0592	0.0182	-0.0073	-0.0462	0.0165	0.9585
41.5971	-0.91979	1.7975	1.5202	-0.79841	-1.3086	2.6344	-11.4396	758.4936	-54.8083	304.5486	59.6681	777.2266	-0.0592	0.0182	-0.0073	-0.0462	0.0165	0.9585
41.6093	-1.0256	1.5114	1.4617	-0.70349	-1.3604	2.2613	-8.7175	761.1188	-54.6555	304.8953	58.1352	775.2964	-0.0592	0.0182	-0.0073	-0.0462	0.0165	0.9585
41.6214	-1.1504	0.96019	1.3703	-0.50378	-1.4115	1.5614	-5.7773	763.8394	-54.5146	305.3054	56.5422	773.2586	-0.0592	0.0182	-0.0073	-0.0462	0.0165	0.9585
41.6336	-1.2871	0.047656	1.2904	-0.15632	-1.4764	0.43025	-2.7395	766.5211	-54.3918	305.7453	54.916	771.0316	-0.0592	0.0182	-0.0073	-0.0462	0.0165	0.9585
41.6457	-1.3993	-1.3092	1.2296	0.36666	-1.5372	-1.2257	0.29675	768.8336	-54.2981	306.0948	53.2893	768.3412	-0.0592	0.0182	-0.0073	-0.0462	0.0165	0.9585
41.6579	-1.4388	-3.1482	1.185	1.0717	-1.5655	-3.4348	3.2449	770.2433	-54.2595	306.1421	51.7097	764.7326	-0.0592	0.0182	-0.0073	-0.0462	0.0165	0.9585
41.67	-1.3012	-5.4011	1.1213	1.9274	-1.4866	-6.1227	6.0728	770.0863	-54.3	305.6188	50.2084	759.6106	-0.0592	0.0182	-0.0073	-0.0462	0.0165	0.9585
41.6821	-0.87562	-7.8128	0.99414	2.8354	-1.2045	-8.9879	8.8048	767.7689	-54.4499	304.2794	48.8049	752.4451	-0.0592	0.0182	-0.0073	-0.0462	0.0165	0.9585
41.6943	-0.00111	-9.8705	0.73352	3.5996	-0.58399	-11.4388	11.5102	762.9396	-54.7388	301.9771	47.5016	742.9257	-0.0592	0.0182	-0.0073	-0.0462	0.0165	0.9585
41.7064	1.4656	-10.705	0.26087	3.8935	0.52139	-12.4554	14.2661	755.6195	-55.1861	298.7138	46.2919	731.0903	-0.0592	0.0182	-0.0073	-0.0462	0.0165	0.9585
41.7186	3.673	-9.0277	-0.51396	3.2348	2.2658	-10.5371	17.1268	746.1792	-55.7743	294.6362	45.1525	717.31	-0.0592	0.0182	-0.0073	-0.0462	0.0165	0.9585
41.7307	6.6658	-3.1054	-1.6609	0.97671	4.7498	-3.6394	20.1126	735.2095	-56.4421	289.9834	44.0402	702.1776	-0.0592	0.0182	-0.0073	-0.0462	0.0165	0.9585
41.7429	10.3611	9.1767	-3.2185	-3.6675	7.978	10.7135	23.2016	723.3178	-57.0835	285.0009	42.8882	686.3192	-0.0592	0.0182	-0.0073	-0.0462	0.0165	0.9585
41.755	14.3635	30.0741	-5.1282	-11.5309	11.7327	35.1846	26.3497	710.8537	-57.5542	279.835	41.5995	670.1163	-0.0592	0.0182	-0.0073	-0.0462	0.0165	0.9585
41.7671	17.9105	61.5147	-7.2133	-23.3184	15.5034	72.0484	29.507	697.7438	-57.6667	274.4665	40.0373	653.5676	-0.0592	0.0182	-0.0073	-0.0462	0.0165	0.9585
41.7793	19.6687	104.327	-9.0615	-39.3148	18.3011	122.3119	32.6199	683.4186	-57.2017	268.6827	38.0404	636.2141	-0.0592	0.0182	-0.0073	-0.0462	0.0165	0.9585
41.7914	17.9056	157.3271	-10.0141	-59.0481	18.7011	184.6326	35.5685	666.8683	-55.9468	262.0973	35.4767	617.2124	-0.0592	0.0182	-0.0073	-0.0462	0.0165	0.9585
41.8036	11.5602	217.0127	-9.2351	-81.163	15.3284	254.9543	38.1901	646.8039	-53.7258	254.21	32.2623	595.4592	-0.0592	0.0182	-0.0073	-0.0462	0.0165	0.9585
41.8157	1.7863	277.6791	-5.758	-103.469	7.4698	326.5026	40.2906	621.9007	-50.4848	244.4953	28.4306	569.8045	-0.0592	0.0182	-0.0073	-0.0462	0.0165	0.9585
41.8279	-8.7396	332.5898	1.0525	-123.456	-4.5237	391.0451	41.6947	591.1175	-46.3217	232.528	24.1413	539.3357	-0.0592	0.0182	-0.0073	-0.0462	0.0165	0.9585
41.84	-18.0446	378.0721	10.0782	-139.8184	-18.5686	443.8969	42.2557	554.0074	-41.5064	218.1011	19.6857	503.6561	-0.0592	0.0182	-0.0073	-0.0462	0.0165	0.9585
41.8521	-25.2172	414.433	19.7272	-152.7749	-32.4449	485.2269	41.8821	510.8288	-36.4054	201.2803	15.4031	462.9883	-0.0592	0.0182	-0.0073	-0.0462	0.0165	0.9585
41.8643	-30.0293	444.2418	28.5878	-163.3805	-44.4243	518.0681	40.5708	462.4485	-31.4107	182.3737	11.6136	418.0759	-0.0592	0.0182	-0.0073	-0.0462	0.0165	0.9585
41.8764	-32.6552	470.3572	35.6018	-172.7834	-53.3709	545.8344	38.314	410.2087	-26.7534	161.8918	8.4944	370.0794	-0.0592	0.0182	-0.0073	-0.0462	0.0165	0.9585
